<svg id="SvgjsSvg1001" width="288" height="288" xmlns="http://www.w3.org/2000/svg" version="1.1" xmlns:xlink="http://www.w3.org/1999/xlink" xmlns:svgjs="http://svgjs.com/svgjs"><defs id="SvgjsDefs1002"></defs><g id="SvgjsG1008" transform="matrix(1,0,0,1,0,0)"><svg xmlns="http://www.w3.org/2000/svg" viewBox="0 0 32 32" width="288" height="288"><g data-name="Layer 2" fill="#e84444" class="color000 svgShape"><path d="M31,16A15,15,0,1,1,16,1,15,15,0,0,1,31,16ZM3,16A13,13,0,1,0,16,3,13,13,0,0,0,3,16Z" fill="#e84444" class="color000 svgShape"></path><path d="M19.87,10.41,14.29,16l5.58,5.59a1,1,0,0,1,0,1.41h0a1,1,0,0,1-1.41,0L12.1,16.64a.91.91,0,0,1,0-1.28L18.46,9a1,1,0,0,1,1.41,0h0A1,1,0,0,1,19.87,10.41Z" fill="#e84444" class="color000 svgShape"></path></g></svg></g></svg>